<?xml version="1.0" standalone="no"?>
<!DOCTYPE svg PUBLIC "-//W3C//DTD SVG 20010904//EN"
 "http://www.w3.org/TR/2001/REC-SVG-20010904/DTD/svg10.dtd">
<svg version="1.0" xmlns="http://www.w3.org/2000/svg"
 width="750.000000pt" height="750.000000pt" viewBox="0 0 750.000000 750.000000"
 preserveAspectRatio="xMidYMid meet">
<metadata>
Created by potrace 1.14, written by Peter Selinger 2001-2017
</metadata>
<g transform="translate(0.000000,750.000000) scale(0.100000,-0.100000)"
fill="#000000" stroke="none">
<path d="M0 3750 l0 -3750 3750 0 3750 0 0 3750 0 3750 -3750 0 -3750 0 0
-3750z m2159 1912 l186 -463 3 465 2 466 249 0 249 0 4 -637 c3 -389 8 -647
14 -661 9 -20 50 69 291 635 l281 658 312 0 312 0 282 -658 c251 -588 282
-655 290 -630 5 15 11 313 13 661 l5 632 249 0 249 0 2 -466 3 -466 187 464
186 463 272 3 c255 2 272 1 266 -15 -4 -9 -210 -511 -458 -1115 l-452 -1098
-1406 0 -1406 0 -453 1103 c-250 606 -456 1108 -458 1115 -4 10 51 12 267 10
l272 -3 187 -463z m902 -2296 c518 -73 743 -273 743 -661 0 -206 -69 -349
-227 -468 -179 -135 -346 -196 -867 -316 -412 -96 -569 -151 -668 -236 -35
-31 -82 -99 -82 -120 0 -2 408 -6 908 -7 l907 -3 0 -210 0 -210 -1245 0 -1245
0 -3 115 c-8 278 39 424 181 563 69 67 153 122 281 182 155 74 334 129 754
235 485 121 619 170 719 263 64 58 83 102 83 184 -1 159 -91 235 -319 268
-234 34 -616 27 -787 -15 -232 -55 -335 -174 -347 -400 l-2 -45 -254 -3 -254
-2 6 102 c30 484 324 736 932 797 135 14 659 5 786 -13z m2329 -906 l0 -900
395 0 395 0 0 -215 0 -215 -1045 0 -1045 0 0 215 0 215 393 0 394 0 6 152 c4
83 7 338 7 565 l0 415 -47 -35 c-148 -107 -337 -161 -609 -174 l-144 -6 0 210
0 209 183 12 c275 17 401 56 503 158 60 61 93 136 101 232 l6 62 253 0 254 0
0 -900z"/>
<path d="M3487 4992 c-141 -328 -257 -602 -257 -609 0 -13 60 -34 175 -60 67
-15 124 -18 355 -18 264 1 279 2 370 27 52 14 107 31 121 36 l27 11 -262 605
c-143 333 -263 606 -266 606 -3 0 -121 -269 -263 -598z"/>
</g>
</svg>
